# xmcd
#
# Track frame offsets:
#	150
#	18274
#	30920
#	46231
#	62035
#	82141
#	99175
#	116686
#	143123
#	157677
#	179191
#	196326
#	223988
#	243682
#
# Disc length: 3481 seconds
#
# Revision: 1046570355
# Processed by: cddbd v1.5.2PL0 Copyright (c) Steve Scherf et al.
# Submitted via: EZCDAudioConverter 3.1.5.1
#
DISCID=bf0d970e
DTITLE=Ελευθερία Αρβανιτάκη - The Very Best of 1989 - 1998
DYEAR=1999
DGENRE=laiko
TTITLE0=Δυνατά
TTITLE1=Το Κοκκινο Φουστάνι
TTITLE2=Μένω Έκτός
TTITLE3=Σκιές Και Χρώματα
TTITLE4=Πάμε ξανά στα Θαύματα
TTITLE5=Του Πόθου το Αγρίμι
TTITLE6=Τα Κορμιά Και Τα Μαχαίρια
TTITLE7=Φύσα ψυχή μου
TTITLE8=Καθρεπτίζω το Νού
TTITLE9=Λιανοτράγουδο
TTITLE10=Κύμα το Κύμα
TTITLE11=Παράπονο- η ξενητιά
TTITLE12=Το Παράπονο
TTITLE13=Της Καληνύχτας τα φιλιά 
EXTD=
EXTT0=
EXTT1=
EXTT2=
EXTT3=
EXTT4=
EXTT5=
EXTT6=
EXTT7=
EXTT8=
EXTT9=
EXTT10=
EXTT11=
EXTT12=
EXTT13=
PLAYORDER=
